<svg width="101" height="118" viewBox="0 0 101 118" fill="none" xmlns="http://www.w3.org/2000/svg">
<path d="M48.4766 3.1801C51.3253 18.3082 37.1445 32.6897 30.9933 38.9201C29.2128 40.7254 28.5495 41.4177 28.354 41.9063C28.2982 41.9606 28.1935 42.0421 28.1306 42.0964C27.97 42.2253 27.8304 42.3407 27.7256 42.4764C13.6706 61.6699 10.4658 71.7077 13.9988 85.4513C17.4549 98.8962 29.4223 106.966 30.316 107.549C34.0305 110.61 45.7815 114.309 51.9118 116.101C51.4719 116.115 51.032 116.121 50.5921 116.121C36.3137 116.121 25.3936 109.504 18.7536 103.952C11.7296 98.0885 7.86145 92.1432 7.6101 91.7427C0.0554212 77.2934 -0.272757 62.939 6.63258 49.0801C12.1764 37.9563 20.7505 30.4093 24.4091 27.1923C25.4634 26.2692 25.8963 25.8824 26.0849 25.6041C27.1461 24.0567 41.8296 9.65483 48.4766 3.1801ZM48.8955 1.81592C48.8955 1.81592 26.9018 23.1947 25.5053 25.2308C24.1089 27.2669 -13.2456 53.3966 7.00265 92.0821C7.00265 92.0821 22.51 116.8 50.5991 116.8C52.3098 116.8 54.0693 116.705 55.8776 116.515C55.8776 116.515 35.6294 111.085 30.7419 107.013C30.7419 107.013 18.1741 98.869 14.683 85.2952C11.2059 71.7824 14.4875 61.7377 28.2982 42.8768C28.4169 42.7207 28.9475 42.3882 28.9964 42.1982C29.4712 40.3453 53.783 21.498 48.8955 1.81592Z" fill="url(#paint0_linear_519_318)" stroke="#DF5E00"/>
<path d="M55.8777 7.92334C55.8777 7.92334 74.0034 19.7665 88.6938 39.1432C98.4688 52.0384 114.528 91.4026 71.9367 112.442C70.4355 116.86 29.5411 87.473 55.1795 45.9302C55.1795 45.9302 28.6474 55.4319 41.9135 96.8321C41.9135 96.8321 17.5737 80.0752 40.517 45.9302C40.8033 45.5026 40.8941 44.98 41.2152 44.5728C51.088 32.0848 53.0849 31.6776 55.8777 7.92334Z" fill="url(#paint1_linear_519_318)" stroke="#FF612F" stroke-miterlimit="10"/>
<defs>
<linearGradient id="paint0_linear_519_318" x1="16.7158" y1="-45.7956" x2="83.6902" y2="132.649" gradientUnits="userSpaceOnUse">
<stop stop-color="#FFE53B"/>
<stop offset="1" stop-color="#FF2525"/>
</linearGradient>
<linearGradient id="paint1_linear_519_318" x1="50.5112" y1="-35.5367" x2="97.4798" y2="137.548" gradientUnits="userSpaceOnUse">
<stop stop-color="#FFE53B"/>
<stop offset="1" stop-color="#FF2525"/>
</linearGradient>
</defs>
</svg>
