<svg width="132" height="132" viewBox="0 0 132 132" fill="none" xmlns="http://www.w3.org/2000/svg">
<rect width="132" height="132" rx="15" fill="#00116A"/>
<path d="M117.548 103.097H106.258C104.479 103.097 103.032 101.65 103.032 99.871C103.032 98.0919 104.479 96.6452 106.258 96.6452H112.71C116.268 96.6452 119.161 93.7516 119.161 90.1935C119.161 86.6355 116.268 83.7419 112.71 83.7419H88.5161V77.2903H91.7419V74.0645H88.5161V48.2581H91.7419V45.0323H88.5161V19.2258H91.7419V16H24V19.2258H27.2258V45.0323H24V48.2581H27.2258V74.0645H24V77.2903H27.2258V103.097H24V106.323H41.9048C42.6548 109.998 45.9113 112.774 49.8065 112.774H61.3726C62.0387 114.652 63.8323 116 65.9355 116H117.548C121.106 116 124 113.106 124 109.548C124 105.99 121.106 103.097 117.548 103.097ZM30.4516 19.2258H85.2903V45.0323H62.8984L57.871 37.2097L52.8435 45.0323H30.4516V19.2258ZM71.4371 58.3161L64.9726 48.2581H85.2903V74.0645H72.6435C73.5113 72.0871 74 69.9064 74 67.6129V67.0387C74 63.9387 73.1145 60.9226 71.4371 58.3161ZM70.7742 67.0387V67.6129C70.7742 69.7836 70.2353 71.8309 69.2843 73.628C67.1184 77.7209 62.8148 80.5161 57.871 80.5161C50.7565 80.5161 44.9677 74.7274 44.9677 67.6129V67.0387C44.9677 64.5597 45.6758 62.1468 47.0177 60.0613L57.871 43.1774L68.7242 60.0613C70.0661 62.1452 70.7742 64.5581 70.7742 67.0387ZM30.4516 48.2581H50.7694L44.3048 58.3145C42.6274 60.9226 41.7419 63.9387 41.7419 67.0387V67.6129C41.7419 69.9064 42.2306 72.0871 43.0984 74.0645H30.4516V48.2581ZM30.4516 103.097V77.2903H44.9677V77.2484C47.9113 81.1806 52.5919 83.7419 57.871 83.7419C63.15 83.7419 67.8306 81.1806 70.7742 77.2484V77.2903H85.2903V103.097H30.4516ZM117.548 112.774H65.9355C65.0452 112.774 64.3226 112.052 64.3226 111.161V109.548H49.8065C47.7065 109.548 45.9323 108.195 45.2645 106.323H91.7419V103.097H88.5161V86.9677H112.71C114.489 86.9677 115.935 88.4145 115.935 90.1935C115.935 91.9726 114.489 93.4193 112.71 93.4193H106.258C102.7 93.4193 99.8065 96.3129 99.8065 99.871C99.8065 103.429 102.7 106.323 106.258 106.323H117.548C119.327 106.323 120.774 107.769 120.774 109.548C120.774 111.327 119.327 112.774 117.548 112.774Z" fill="white"/>
<path d="M94.9677 90.1934H91.7419V93.4192H94.9677V90.1934Z" fill="#FF4700" stroke="url(#paint0_linear_80_12)"/>
<path d="M94.9677 96.6455H91.7419V99.8713H94.9677V96.6455Z" fill="#FF4700" stroke="url(#paint1_linear_80_12)"/>
<path d="M82.0644 96.6455H78.8386V99.8713H82.0644V96.6455Z" fill="#FF4700" stroke="url(#paint2_linear_80_12)"/>
<path d="M75.6128 96.6455H72.387V99.8713H75.6128V96.6455Z" fill="#FF4700" stroke="url(#paint3_linear_80_12)"/>
<path d="M57.871 37.21C63.3454 49.4729 78.5526 61.3465 72.6436 74.0648C62.0021 90.4706 47.5316 82.5293 43.0984 74.0648C38.0129 58.4433 52.8691 49.469 57.871 37.21Z" stroke="url(#paint4_linear_80_12)" stroke-width="15"/>
<defs>
<linearGradient id="paint0_linear_80_12" x1="92.6657" y1="88.8576" x2="93.657" y2="94.3914" gradientUnits="userSpaceOnUse">
<stop stop-color="#FFE53B"/>
<stop offset="1" stop-color="#FF2525"/>
</linearGradient>
<linearGradient id="paint1_linear_80_12" x1="92.6657" y1="95.3098" x2="93.657" y2="100.844" gradientUnits="userSpaceOnUse">
<stop stop-color="#FFE53B"/>
<stop offset="1" stop-color="#FF2525"/>
</linearGradient>
<linearGradient id="paint2_linear_80_12" x1="79.7624" y1="95.3098" x2="80.7537" y2="100.844" gradientUnits="userSpaceOnUse">
<stop stop-color="#FFE53B"/>
<stop offset="1" stop-color="#FF2525"/>
</linearGradient>
<linearGradient id="paint3_linear_80_12" x1="73.3108" y1="95.3098" x2="74.302" y2="100.844" gradientUnits="userSpaceOnUse">
<stop stop-color="#FFE53B"/>
<stop offset="1" stop-color="#FF2525"/>
</linearGradient>
<linearGradient id="paint4_linear_80_12" x1="51.1975" y1="17.9938" x2="71.2306" y2="94.9448" gradientUnits="userSpaceOnUse">
<stop stop-color="#FFE53B"/>
<stop offset="1" stop-color="#FF2525"/>
</linearGradient>
</defs>
</svg>