<svg width="132" height="132" viewBox="0 0 132 132" fill="none" xmlns="http://www.w3.org/2000/svg">
<rect width="132" height="132" rx="15" fill="#00116A"/>
<path d="M80.5625 97.0509L79.0312 97.9259C77.4909 98.8403 75.6577 99.1264 73.912 98.7249C72.1663 98.3234 70.6423 97.2651 69.6562 95.7697C69.4629 95.4473 69.1874 95.182 68.858 95.0008C68.5286 94.8197 68.1571 94.7291 67.7812 94.7384C67.2688 94.7316 66.7682 94.893 66.3562 95.1977C65.9442 95.5025 65.6435 95.9339 65.5 96.4259C64.7529 98.8459 64.3633 101.362 64.3438 103.895C64.374 106.227 64.7425 108.543 65.4375 110.77H66.5C71.9695 110.759 77.3575 109.444 82.2165 106.933C87.0755 104.422 91.2652 100.788 94.4375 96.3322C92.2389 95.3216 89.8281 94.8591 87.4116 94.9843C84.9951 95.1095 82.6449 95.8186 80.5625 97.0509Z" fill="white"/>
<path d="M90.25 76.3945C89.9983 75.5415 89.4926 74.7855 88.8003 74.2272C88.108 73.6689 87.262 73.3348 86.375 73.2695L81.4688 72.8633C80.1981 72.7514 78.9653 72.3734 77.8503 71.7539C76.7353 71.1344 75.7631 70.2873 74.9968 69.2676C74.2306 68.2479 73.6874 67.0784 73.4026 65.835C73.1178 64.5917 73.0978 63.3024 73.3438 62.0508C73.9017 59.4928 73.8382 56.8383 73.1586 54.3099C72.4789 51.7815 71.2029 49.453 69.4375 47.5195V39.9258H74.6563C79.9 39.9175 84.9267 37.8308 88.6346 34.1229C92.3425 30.4149 94.4292 25.3883 94.4375 20.1445C94.4375 19.3157 94.1083 18.5209 93.5222 17.9348C92.9362 17.3488 92.1413 17.0195 91.3125 17.0195H82.9688C79.6469 17.0245 76.3798 17.8658 73.4688 19.4661C70.5579 21.0663 68.0967 23.3738 66.3125 26.1758C64.5283 23.3738 62.0671 21.0663 59.1562 19.4661C56.2452 17.8658 52.9781 17.0245 49.6562 17.0195H41.3125C40.4837 17.0195 39.6888 17.3488 39.1028 17.9348C38.5167 18.5209 38.1875 19.3157 38.1875 20.1445C38.1958 25.3883 40.2825 30.4149 43.9904 34.1229C47.6983 37.8308 52.725 39.9175 57.9688 39.9258H63.1875V42.0195C58.4079 42.4652 53.776 43.9134 49.5938 46.2695C52.017 50.7458 52.6214 55.984 51.2813 60.8945C50.9632 62.2454 50.8266 63.6326 50.875 65.0195C50.8785 68.5969 52.1395 72.0591 54.4375 74.8008L54.9062 75.3945C56.8656 77.7381 58.2526 80.5055 58.9577 83.4778C59.6628 86.45 59.6666 89.5456 58.9688 92.5195L55.2813 108.801C57.0389 109.426 58.8478 109.897 60.6875 110.207C60.2183 108.157 59.9772 106.06 59.9688 103.957C59.9401 100.971 60.3722 97.9987 61.25 95.1445C61.6888 93.7284 62.5678 92.4891 63.7592 91.6067C64.9506 90.7244 66.3924 90.245 67.875 90.2383C69.0151 90.2312 70.1382 90.5143 71.1386 91.061C72.1391 91.6077 72.984 92.4 73.5938 93.3633C73.9258 93.8577 74.4337 94.2072 75.0141 94.3407C75.5945 94.4742 76.204 94.3817 76.7188 94.082L78.25 93.207C81.0664 91.5277 84.2602 90.5845 87.537 90.4643C90.8139 90.3442 94.0682 91.051 97 92.5195C98.5618 89.5756 99.6781 86.4162 100.313 83.1445H98.875C96.8964 83.1197 94.9808 82.4457 93.4225 81.2262C91.8643 80.0066 90.7497 78.3091 90.25 76.3945Z" fill="url(#paint0_linear_72_424)"/>
<path d="M70.6562 42.1758L71.7813 43.2383C73.8322 45.2404 75.4633 47.6314 76.5794 50.2713C77.6955 52.9112 78.274 55.7471 78.2813 58.6133C78.2905 60.083 78.1439 61.5495 77.8437 62.9883C77.7165 63.6057 77.7231 64.2432 77.8633 64.8577C78.0035 65.4723 78.2739 66.0496 78.6562 66.5508C79.0266 67.0466 79.4953 67.4607 80.033 67.7672C80.5707 68.0737 81.1659 68.266 81.7812 68.332L86.7187 68.707C88.5528 68.8656 90.294 69.5828 91.7078 70.7618C93.1215 71.9409 94.1397 73.5251 94.625 75.3008C94.8951 76.1902 95.4395 76.9714 96.1804 77.5327C96.9213 78.094 97.8207 78.4066 98.75 78.4258H100.875C100.875 77.707 100.875 76.957 100.875 76.207C100.853 67.8258 97.769 59.7414 92.204 53.4743C86.639 47.2072 78.9761 43.1891 70.6562 42.1758Z" fill="white"/>
<path d="M50.875 77.7695C47.8682 74.1993 46.2093 69.6872 46.1875 65.0195C46.1792 63.2466 46.4105 61.4806 46.875 59.7695C47.843 56.1393 47.4426 52.28 45.75 48.9258C41.1066 52.4401 37.4321 57.0764 35.0712 62.3997C32.7104 67.7231 31.7406 73.5589 32.2529 79.3597C32.7652 85.1605 34.7428 90.736 38.0001 95.5632C41.2573 100.39 45.6876 104.311 50.875 106.957L54.375 91.332C54.918 89.0474 54.9182 86.6674 54.3755 84.3827C53.8328 82.098 52.7624 79.9722 51.25 78.1758L50.875 77.7695Z" fill="white"/>
<defs>
<linearGradient id="paint0_linear_72_424" x1="62.7501" y1="23.0612" x2="64.0001" y2="110.561" gradientUnits="userSpaceOnUse">
<stop offset="0.000736302" stop-color="#00FF00" stop-opacity="0.97"/>
<stop offset="0.359375" stop-color="#0FFF0F" stop-opacity="0.621864"/>
<stop offset="1" stop-color="#2AFF2A" stop-opacity="0"/>
</linearGradient>
</defs>
</svg>