<svg width="101" height="101" viewBox="0 0 101 101" fill="none" xmlns="http://www.w3.org/2000/svg">
<path d="M23.1299 4.35533C21.4842 4.36314 19.8463 4.51803 18.2288 4.83111C39.1077 17.3989 54.6981 34.1983 67.0022 53.6288C67.4956 43.1288 63.2776 32.3143 56.5465 23.5018C53.7932 24.5366 50.3987 23.6467 48.0567 21.3045C45.7168 18.9647 44.8227 15.5727 45.8532 12.8206C38.8752 7.55552 30.9104 4.31627 23.1299 4.35533ZM97.4584 8.34068L83.6038 23.5018L89.4748 48.0258L78.7147 49.7407L74.9243 65.4879L89.2797 73.1294L81.2231 84.0546L87.0157 92.6547L69.6754 87.2592L72.8981 78.696L57.9202 72.0858L60.4834 55.5696L38.7305 66.9221L37.9063 82.2053L15.9883 76.8038L9.49419 97.1467H97.4582V8.34068H97.4584ZM51.9018 12.3631C51.826 12.3651 51.7502 12.3686 51.676 12.3749C50.9643 12.4383 50.3319 12.7061 49.8815 13.1561C48.6809 14.3573 48.7592 16.8436 50.6383 18.7225C52.5176 20.602 55.0041 20.6803 56.2047 19.4795C57.4055 18.2788 57.3272 15.7924 55.4479 13.9131C54.3469 12.8122 53.0387 12.3319 51.9018 12.3629V12.3631ZM39.2737 25.8149L5.83228 59.2682C6.66685 61.5975 7.98599 63.3796 10.7639 64.2733L44.2483 30.7772C42.7256 29.0409 41.0631 27.3919 39.2737 25.8151V25.8149ZM70.2854 28.0854L72.1045 44.6256L77.4633 28.0852H70.2856L70.2854 28.0854ZM44.4983 42.7276L40.5616 49.7465L58.6645 51.187L44.4985 42.7274L44.4983 42.7276Z" fill="url(#paint0_linear_72_422)"/>
<defs>
<linearGradient id="paint0_linear_72_422" x1="5.89474" y1="4.22761" x2="165.895" y2="155.061" gradientUnits="userSpaceOnUse">
<stop offset="0.270833" stop-color="white"/>
<stop offset="1" stop-opacity="0"/>
</linearGradient>
</defs>
</svg>
