<svg width="132" height="132" viewBox="0 0 132 132" fill="none" xmlns="http://www.w3.org/2000/svg">
<rect width="132" height="132" rx="15" fill="#00116A"/>
<path d="M36.1299 17.3553C34.4842 17.3631 32.8463 17.518 31.2288 17.8311C52.1077 30.3989 67.6981 47.1983 80.0022 66.6288C80.4956 56.1288 76.2776 45.3143 69.5465 36.5018C66.7932 37.5366 63.3987 36.6467 61.0567 34.3045C58.7168 31.9647 57.8227 28.5727 58.8532 25.8206C51.8752 20.5555 43.9104 17.3163 36.1299 17.3553ZM110.458 21.3407L96.6038 36.5018L102.475 61.0258L91.7147 62.7407L87.9243 78.4879L102.28 86.1294L94.2231 97.0546L100.016 105.655L82.6754 100.259L85.8981 91.696L70.9202 85.0858L73.4834 68.5696L51.7305 79.9221L50.9063 95.2053L28.9883 89.8038L22.4942 110.147H110.458V21.3407H110.458ZM64.9018 25.3631C64.826 25.3651 64.7502 25.3686 64.676 25.3749C63.9643 25.4383 63.3319 25.7061 62.8815 26.1561C61.6809 27.3573 61.7592 29.8436 63.6383 31.7225C65.5176 33.602 68.0041 33.6803 69.2047 32.4795C70.4055 31.2788 70.3272 28.7924 68.4479 26.9131C67.3469 25.8122 66.0387 25.3319 64.9018 25.3629V25.3631ZM52.2737 38.8149L18.8323 72.2682C19.6668 74.5975 20.986 76.3796 23.7639 77.2733L57.2483 43.7772C55.7256 42.0409 54.0631 40.3919 52.2737 38.8151V38.8149ZM83.2854 41.0854L85.1045 57.6256L90.4633 41.0852H83.2856L83.2854 41.0854ZM57.4983 55.7276L53.5616 62.7465L71.6645 64.187L57.4985 55.7274L57.4983 55.7276Z" fill="url(#paint0_linear_72_240)"/>
<defs>
<linearGradient id="paint0_linear_72_240" x1="18.8947" y1="17.2276" x2="178.895" y2="168.061" gradientUnits="userSpaceOnUse">
<stop offset="0.270833" stop-color="white"/>
<stop offset="1" stop-opacity="0"/>
</linearGradient>
</defs>
</svg>