<svg width="100" height="100" viewBox="0 0 100 100" fill="none" xmlns="http://www.w3.org/2000/svg">
<path d="M62.3492 49.3729C62.2301 48.7197 61.7188 48.2084 61.0656 48.0892C59.4722 47.7986 57.8422 47.6514 56.2207 47.6514C49.0439 47.6514 42.2971 50.4456 37.2232 55.5195C31.1852 61.5575 28.3894 70.1024 29.6545 78.5267L23.742 84.4399C23.1188 85.0631 23.119 86.0735 23.742 86.6967C24.0537 87.0082 24.462 87.1639 24.8703 87.1639C25.2786 87.1639 25.6871 87.0082 25.9988 86.6965L31.9122 80.7824C33.2375 80.9812 34.5822 81.0833 35.9213 81.0833C43.0979 81.0833 49.8452 78.2888 54.919 73.2152C61.1569 66.9773 63.9345 58.0643 62.3492 49.3729ZM52.6624 70.9584C48.1911 75.4295 42.2458 77.8918 35.9215 77.8918C35.5581 77.8918 35.1945 77.8803 34.8309 77.8635L55.8786 56.8143C56.5018 56.1912 56.5015 55.1807 55.8786 54.5575C55.2552 53.9343 54.2452 53.9346 53.6218 54.5575L32.5722 75.6088C32.2705 69.0022 34.7428 62.5135 39.4803 57.776C43.9513 53.305 49.8967 50.8426 56.2211 50.8426C57.2771 50.8426 58.3371 50.9135 59.3849 51.0537C60.3641 58.358 57.8945 65.7263 52.6624 70.9584Z" fill="url(#paint0_linear_72_235)"/>
<path d="M24.8704 31.6238C25.7517 31.6238 26.4661 30.9094 26.4661 30.0281V9.49618H59.2183V30.0281C59.2183 30.9094 59.9327 31.6238 60.814 31.6238C61.6953 31.6238 62.4098 30.9094 62.4098 30.0281V7.90043C62.4098 7.01916 61.6953 6.30469 60.814 6.30469H24.8704C23.9891 6.30469 23.2747 7.01916 23.2747 7.90043V30.0281C23.2747 30.9094 23.9891 31.6238 24.8704 31.6238Z" fill="url(#paint1_linear_72_235)"/>
<path d="M85.7675 15.6398H84.6918C83.9175 10.4098 79.3995 6.38298 73.9575 6.38298C73.0763 6.38298 72.3618 7.09745 72.3618 7.97872C72.3618 8.86 73.0763 9.57447 73.9575 9.57447C77.6348 9.57447 80.7139 12.1789 81.4503 15.6398H78.5335C77.6522 15.6398 76.9377 16.3543 76.9377 17.2355C76.9377 18.1168 77.6522 18.8313 78.5335 18.8313H79.0654V32.8832C79.0654 33.7645 79.7799 34.4789 80.6612 34.4789H81.6186V70.9406C81.6186 72.2168 80.5805 73.2547 79.3046 73.2547C78.0284 73.2547 76.9903 72.2166 76.9903 70.9406V32.8832C76.9903 28.2353 73.6046 24.366 69.1705 23.6055V7.97872C69.1705 3.57936 65.5914 0 61.1918 0H24.8705C20.4709 0 16.8918 3.57936 16.8918 7.97872V96.8085H14.2322C13.3509 96.8085 12.6365 97.523 12.6365 98.4043C12.6365 99.2855 13.3509 100 14.2322 100H71.8299C72.7112 100 73.4256 99.2855 73.4256 98.4043C73.4256 97.523 72.7112 96.8085 71.8299 96.8085H69.1703V26.8674C71.8316 27.574 73.7986 30.003 73.7986 32.8834V70.9408C73.7986 73.9768 76.2684 76.4464 79.3043 76.4464C82.3403 76.4464 84.8099 73.9766 84.8099 70.9408V34.4791H85.7673C86.6486 34.4791 87.3631 33.7647 87.3631 32.8834V17.2355C87.3633 16.3543 86.6488 15.6398 85.7675 15.6398ZM24.8705 3.19149H61.1916C63.8314 3.19149 65.9788 5.33915 65.9788 7.97872V34.8151H20.0833V7.97872C20.0833 5.33915 22.2307 3.19149 24.8705 3.19149ZM20.0833 96.8085V38.0066H65.9788V96.8085H20.0833ZM82.2569 31.2877V18.8313H84.1718V31.2874L82.2569 31.2877Z" fill="white"/>
<defs>
<linearGradient id="paint0_linear_72_235" x1="51.6666" y1="47.5" x2="43.3333" y2="98.3333" gradientUnits="userSpaceOnUse">
<stop stop-color="#2AFF2A"/>
<stop offset="1" stop-color="#2AFF2A" stop-opacity="0"/>
</linearGradient>
<linearGradient id="paint1_linear_72_235" x1="42.8422" y1="6.30469" x2="42.8422" y2="31.6238" gradientUnits="userSpaceOnUse">
<stop stop-color="#2AFF2A"/>
<stop offset="1" stop-color="#FFE371" stop-opacity="0"/>
</linearGradient>
</defs>
</svg>
