<svg width="132" height="132" viewBox="0 0 132 132" fill="none" xmlns="http://www.w3.org/2000/svg">
<rect width="132" height="132" rx="15" fill="#00116A"/>
<path d="M78.3492 65.3729C78.2301 64.7197 77.7188 64.2084 77.0656 64.0892C75.4722 63.7986 73.8422 63.6514 72.2207 63.6514C65.0439 63.6514 58.2971 66.4456 53.2232 71.5195C47.1852 77.5575 44.3894 86.1024 45.6545 94.5267L39.742 100.44C39.1188 101.063 39.119 102.073 39.742 102.697C40.0537 103.008 40.462 103.164 40.8703 103.164C41.2786 103.164 41.6871 103.008 41.9988 102.696L47.9122 96.7824C49.2375 96.9812 50.5822 97.0833 51.9213 97.0833C59.0979 97.0833 65.8452 94.2888 70.919 89.2152C77.1569 82.9773 79.9345 74.0643 78.3492 65.3729ZM68.6624 86.9584C64.1911 91.4295 58.2458 93.8918 51.9215 93.8918C51.5581 93.8918 51.1945 93.8803 50.8309 93.8635L71.8786 72.8143C72.5018 72.1912 72.5015 71.1807 71.8786 70.5575C71.2552 69.9343 70.2452 69.9346 69.6218 70.5575L48.5722 91.6088C48.2705 85.0022 50.7428 78.5135 55.4803 73.776C59.9513 69.305 65.8967 66.8426 72.2211 66.8426C73.2771 66.8426 74.3371 66.9135 75.3849 67.0537C76.3641 74.358 73.8945 81.7263 68.6624 86.9584Z" fill="url(#paint0_linear_9_162)"/>
<path d="M40.8704 47.6238C41.7517 47.6238 42.4661 46.9094 42.4661 46.0281V25.4962H75.2183V46.0281C75.2183 46.9094 75.9327 47.6238 76.814 47.6238C77.6953 47.6238 78.4098 46.9094 78.4098 46.0281V23.9004C78.4098 23.0192 77.6953 22.3047 76.814 22.3047H40.8704C39.9891 22.3047 39.2747 23.0192 39.2747 23.9004V46.0281C39.2747 46.9094 39.9891 47.6238 40.8704 47.6238Z" fill="url(#paint1_linear_9_162)"/>
<path d="M101.768 31.6398H100.692C99.9175 26.4098 95.3995 22.383 89.9575 22.383C89.0763 22.383 88.3618 23.0974 88.3618 23.9787C88.3618 24.86 89.0763 25.5745 89.9575 25.5745C93.6348 25.5745 96.7139 28.1789 97.4503 31.6398H94.5335C93.6522 31.6398 92.9377 32.3543 92.9377 33.2355C92.9377 34.1168 93.6522 34.8313 94.5335 34.8313H95.0654V48.8832C95.0654 49.7645 95.7799 50.4789 96.6612 50.4789H97.6186V86.9406C97.6186 88.2168 96.5805 89.2547 95.3046 89.2547C94.0284 89.2547 92.9903 88.2166 92.9903 86.9406V48.8832C92.9903 44.2353 89.6046 40.366 85.1705 39.6055V23.9787C85.1705 19.5794 81.5914 16 77.1918 16H40.8705C36.4709 16 32.8918 19.5794 32.8918 23.9787V112.809H30.2322C29.3509 112.809 28.6365 113.523 28.6365 114.404C28.6365 115.286 29.3509 116 30.2322 116H87.8299C88.7112 116 89.4256 115.286 89.4256 114.404C89.4256 113.523 88.7112 112.809 87.8299 112.809H85.1703V42.8674C87.8316 43.574 89.7986 46.003 89.7986 48.8834V86.9408C89.7986 89.9768 92.2684 92.4464 95.3043 92.4464C98.3403 92.4464 100.81 89.9766 100.81 86.9408V50.4791H101.767C102.649 50.4791 103.363 49.7647 103.363 48.8834V33.2355C103.363 32.3543 102.649 31.6398 101.768 31.6398ZM40.8705 19.1915H77.1916C79.8314 19.1915 81.9788 21.3391 81.9788 23.9787V50.8151H36.0833V23.9787C36.0833 21.3391 38.2307 19.1915 40.8705 19.1915ZM36.0833 112.809V54.0066H81.9788V112.809H36.0833ZM98.2569 47.2877V34.8313H100.172V47.2874L98.2569 47.2877Z" fill="white"/>
<defs>
<linearGradient id="paint0_linear_9_162" x1="67.6666" y1="63.5" x2="59.3333" y2="114.333" gradientUnits="userSpaceOnUse">
<stop stop-color="#2AFF2A"/>
<stop offset="1" stop-color="#2AFF2A" stop-opacity="0"/>
</linearGradient>
<linearGradient id="paint1_linear_9_162" x1="58.8422" y1="22.3047" x2="58.8422" y2="47.6238" gradientUnits="userSpaceOnUse">
<stop stop-color="#2AFF2A"/>
<stop offset="1" stop-color="#FFE371" stop-opacity="0"/>
</linearGradient>
</defs>
</svg>