<svg width="100" height="100" viewBox="0 0 100 100" fill="none" xmlns="http://www.w3.org/2000/svg">
<path d="M93.5484 87.0968H82.2581C80.479 87.0968 79.0323 85.65 79.0323 83.871C79.0323 82.0919 80.479 80.6452 82.2581 80.6452H88.7097C92.2677 80.6452 95.1613 77.7516 95.1613 74.1935C95.1613 70.6355 92.2677 67.7419 88.7097 67.7419H64.5161V61.2903H67.7419V58.0645H64.5161V32.2581H67.7419V29.0323H64.5161V3.22581H67.7419V0H0V3.22581H3.22581V29.0323H0V32.2581H3.22581V58.0645H0V61.2903H3.22581V87.0968H0V90.3226H17.9048C18.6548 93.9984 21.9113 96.7742 25.8064 96.7742H37.3726C38.0387 98.6516 39.8323 100 41.9355 100H93.5484C97.1065 100 100 97.1065 100 93.5484C100 89.9903 97.1065 87.0968 93.5484 87.0968ZM6.45161 3.22581H61.2903V29.0323H38.8984L33.871 21.2097L28.8435 29.0323H6.45161V3.22581ZM47.4371 42.3161L40.9726 32.2581H61.2903V58.0645H48.6435C49.5113 56.0871 50 53.9064 50 51.6129V51.0387C50 47.9387 49.1145 44.9226 47.4371 42.3161ZM46.7742 51.0387V51.6129C46.7742 53.7836 46.2353 55.8309 45.2843 57.628C43.1184 61.7209 38.8148 64.5161 33.871 64.5161C26.7565 64.5161 20.9677 58.7274 20.9677 51.6129V51.0387C20.9677 48.5597 21.6758 46.1468 23.0177 44.0613L33.871 27.1774L44.7242 44.0613C46.0661 46.1452 46.7742 48.5581 46.7742 51.0387ZM6.45161 32.2581H26.7694L20.3048 42.3145C18.6274 44.9226 17.7419 47.9387 17.7419 51.0387V51.6129C17.7419 53.9064 18.2306 56.0871 19.0984 58.0645H6.45161V32.2581ZM6.45161 87.0968V61.2903H20.9677V61.2484C23.9113 65.1806 28.5919 67.7419 33.871 67.7419C39.15 67.7419 43.8306 65.1806 46.7742 61.2484V61.2903H61.2903V87.0968H6.45161ZM93.5484 96.7742H41.9355C41.0452 96.7742 40.3226 96.0516 40.3226 95.1613V93.5484H25.8064C23.7064 93.5484 21.9323 92.1952 21.2645 90.3226H67.7419V87.0968H64.5161V70.9677H88.7097C90.4887 70.9677 91.9355 72.4145 91.9355 74.1935C91.9355 75.9726 90.4887 77.4193 88.7097 77.4193H82.2581C78.7 77.4193 75.8064 80.3129 75.8064 83.871C75.8064 87.429 78.7 90.3226 82.2581 90.3226H93.5484C95.3274 90.3226 96.7742 91.7694 96.7742 93.5484C96.7742 95.3274 95.3274 96.7742 93.5484 96.7742Z" fill="white"/>
<path d="M70.9677 74.1934H67.7419V77.4192H70.9677V74.1934Z" fill="#FF4700" stroke="url(#paint0_linear_80_4)"/>
<path d="M70.9677 80.6455H67.7419V83.8713H70.9677V80.6455Z" fill="#FF4700" stroke="url(#paint1_linear_80_4)"/>
<path d="M58.0644 80.6455H54.8386V83.8713H58.0644V80.6455Z" fill="#FF4700" stroke="url(#paint2_linear_80_4)"/>
<path d="M51.6128 80.6455H48.387V83.8713H51.6128V80.6455Z" fill="#FF4700" stroke="url(#paint3_linear_80_4)"/>
<path d="M33.871 21.21C39.3454 33.4729 54.5526 45.3465 48.6436 58.0648C38.0021 74.4706 23.5316 66.5293 19.0984 58.0648C14.0129 42.4433 28.8691 33.469 33.871 21.21Z" stroke="url(#paint4_linear_80_4)" stroke-width="15"/>
<defs>
<linearGradient id="paint0_linear_80_4" x1="68.6657" y1="72.8576" x2="69.657" y2="78.3914" gradientUnits="userSpaceOnUse">
<stop stop-color="#FFE53B"/>
<stop offset="1" stop-color="#FF2525"/>
</linearGradient>
<linearGradient id="paint1_linear_80_4" x1="68.6657" y1="79.3098" x2="69.657" y2="84.8436" gradientUnits="userSpaceOnUse">
<stop stop-color="#FFE53B"/>
<stop offset="1" stop-color="#FF2525"/>
</linearGradient>
<linearGradient id="paint2_linear_80_4" x1="55.7624" y1="79.3098" x2="56.7537" y2="84.8436" gradientUnits="userSpaceOnUse">
<stop stop-color="#FFE53B"/>
<stop offset="1" stop-color="#FF2525"/>
</linearGradient>
<linearGradient id="paint3_linear_80_4" x1="49.3108" y1="79.3098" x2="50.302" y2="84.8436" gradientUnits="userSpaceOnUse">
<stop stop-color="#FFE53B"/>
<stop offset="1" stop-color="#FF2525"/>
</linearGradient>
<linearGradient id="paint4_linear_80_4" x1="27.1975" y1="1.9938" x2="47.2306" y2="78.9448" gradientUnits="userSpaceOnUse">
<stop stop-color="#FFE53B"/>
<stop offset="1" stop-color="#FF2525"/>
</linearGradient>
</defs>
</svg>
