<svg width="101" height="101" viewBox="0 0 101 101" fill="none" xmlns="http://www.w3.org/2000/svg">
<path d="M64.5625 84.0509L63.0312 84.9259C61.4909 85.8403 59.6577 86.1264 57.912 85.7249C56.1663 85.3234 54.6423 84.2651 53.6562 82.7697C53.4629 82.4473 53.1874 82.182 52.858 82.0008C52.5286 81.8197 52.1571 81.7291 51.7812 81.7384C51.2688 81.7316 50.7682 81.893 50.3562 82.1977C49.9442 82.5025 49.6435 82.9339 49.5 83.4259C48.7529 85.8459 48.3633 88.3621 48.3438 90.8947C48.374 93.2272 48.7425 95.543 49.4375 97.7697H50.5C55.9695 97.7594 61.3575 96.444 66.2165 93.933C71.0755 91.422 75.2652 87.7877 78.4375 83.3322C76.2389 82.3216 73.8281 81.8591 71.4116 81.9843C68.9951 82.1095 66.6449 82.8186 64.5625 84.0509Z" fill="white"/>
<path d="M74.25 63.3945C73.9983 62.5415 73.4926 61.7855 72.8003 61.2272C72.108 60.6689 71.262 60.3348 70.375 60.2695L65.4688 59.8633C64.1981 59.7513 62.9653 59.3734 61.8503 58.7539C60.7353 58.1344 59.7631 57.2873 58.9968 56.2676C58.2306 55.2479 57.6874 54.0784 57.4026 52.835C57.1178 51.5917 57.0978 50.3024 57.3438 49.0508C57.9017 46.4928 57.8382 43.8383 57.1586 41.3099C56.4789 38.7815 55.2029 36.453 53.4375 34.5195V26.9258H58.6563C63.9 26.9175 68.9267 24.8308 72.6346 21.1229C76.3425 17.4149 78.4292 12.3883 78.4375 7.14453C78.4375 6.31573 78.1083 5.52087 77.5222 4.93482C76.9362 4.34877 76.1413 4.01953 75.3125 4.01953H66.9688C63.6469 4.02445 60.3798 4.86583 57.4688 6.46605C54.5579 8.06628 52.0967 10.3738 50.3125 13.1758C48.5283 10.3738 46.0671 8.06628 43.1562 6.46605C40.2452 4.86583 36.9781 4.02445 33.6563 4.01953H25.3125C24.4837 4.01953 23.6888 4.34877 23.1028 4.93482C22.5167 5.52087 22.1875 6.31573 22.1875 7.14453C22.1958 12.3883 24.2825 17.4149 27.9904 21.1229C31.6983 24.8308 36.725 26.9175 41.9688 26.9258H47.1875V29.0195C42.4079 29.4652 37.776 30.9134 33.5938 33.2695C36.017 37.7458 36.6214 42.984 35.2813 47.8945C34.9632 49.2454 34.8266 50.6326 34.875 52.0195C34.8785 55.5969 36.1395 59.0591 38.4375 61.8008L38.9063 62.3945C40.8656 64.7381 42.2526 67.5055 42.9577 70.4778C43.6628 73.45 43.6666 76.5456 42.9688 79.5195L39.2813 95.8008C41.0389 96.4264 42.8478 96.8969 44.6875 97.207C44.2183 95.1566 43.9772 93.0605 43.9688 90.957C43.9401 87.9711 44.3722 84.9987 45.25 82.1445C45.6888 80.7284 46.5678 79.489 47.7592 78.6067C48.9506 77.7244 50.3924 77.245 51.875 77.2383C53.0151 77.2312 54.1382 77.5143 55.1386 78.061C56.1391 78.6077 56.984 79.4 57.5938 80.3633C57.9258 80.8577 58.4337 81.2072 59.0141 81.3407C59.5945 81.4742 60.204 81.3817 60.7188 81.082L62.25 80.207C65.0664 78.5277 68.2602 77.5845 71.537 77.4643C74.8139 77.3442 78.0682 78.051 81 79.5195C82.5618 76.5756 83.6781 73.4162 84.3125 70.1445H82.875C80.8964 70.1197 78.9808 69.4457 77.4225 68.2261C75.8643 67.0066 74.7497 65.3091 74.25 63.3945Z" fill="url(#paint0_linear_79_453)"/>
<path d="M54.6562 29.1758L55.7813 30.2383C57.8322 32.2404 59.4633 34.6314 60.5794 37.2713C61.6955 39.9112 62.274 42.7471 62.2813 45.6133C62.2905 47.083 62.1439 48.5495 61.8437 49.9883C61.7165 50.6057 61.7231 51.2432 61.8633 51.8577C62.0035 52.4723 62.2739 53.0496 62.6562 53.5508C63.0266 54.0466 63.4953 54.4607 64.033 54.7672C64.5707 55.0737 65.1659 55.266 65.7812 55.332L70.7187 55.707C72.5528 55.8656 74.294 56.5828 75.7078 57.7618C77.1215 58.9409 78.1397 60.5251 78.625 62.3008C78.8951 63.1902 79.4395 63.9714 80.1804 64.5327C80.9213 65.094 81.8207 65.4066 82.75 65.4258H84.875C84.875 64.707 84.875 63.957 84.875 63.207C84.8527 54.8258 81.769 46.7414 76.204 40.4743C70.639 34.2072 62.9761 30.1891 54.6562 29.1758Z" fill="white"/>
<path d="M34.875 64.7695C31.8682 61.1993 30.2093 56.6872 30.1875 52.0195C30.1792 50.2466 30.4105 48.4806 30.875 46.7695C31.843 43.1393 31.4426 39.28 29.75 35.9258C25.1066 39.4401 21.4321 44.0764 19.0712 49.3997C16.7104 54.7231 15.7406 60.5589 16.2529 66.3597C16.7652 72.1605 18.7428 77.736 22.0001 82.5632C25.2573 87.3904 29.6876 91.311 34.875 93.957L38.375 78.332C38.918 76.0474 38.9182 73.6674 38.3755 71.3827C37.8328 69.098 36.7624 66.9722 35.25 65.1758L34.875 64.7695Z" fill="white"/>
<defs>
<linearGradient id="paint0_linear_79_453" x1="46.7501" y1="10.0612" x2="48.0001" y2="97.5612" gradientUnits="userSpaceOnUse">
<stop offset="0.000736302" stop-color="#00FF00" stop-opacity="0.97"/>
<stop offset="0.359375" stop-color="#0FFF0F" stop-opacity="0.621864"/>
<stop offset="1" stop-color="#2AFF2A" stop-opacity="0"/>
</linearGradient>
</defs>
</svg>
